<svg width="66" height="66" viewBox="0 0 66 66" fill="none" xmlns="http://www.w3.org/2000/svg">
<g filter="url(#filter0_d_1633_161686)">
<circle cx="33" cy="28" r="12" fill="#9A9C9E"/>
<circle cx="33" cy="28" r="12.5" stroke="white"/>
</g>
<path d="M32.9975 33.098C32.5029 33.098 32.0549 33.0187 31.6535 32.86C31.2615 32.692 30.9255 32.426 30.6455 32.062C30.3655 31.698 30.1509 31.2313 30.0015 30.662C29.8522 30.0833 29.7775 29.3787 29.7775 28.548V27.652C29.7775 26.8307 29.8522 26.1353 30.0015 25.566C30.1602 24.9873 30.3795 24.516 30.6595 24.152C30.9395 23.788 31.2755 23.522 31.6675 23.354C32.0689 23.186 32.5122 23.102 32.9975 23.102C33.4829 23.102 33.9215 23.186 34.3135 23.354C34.7149 23.5127 35.0555 23.774 35.3355 24.138C35.6155 24.502 35.8302 24.9733 35.9795 25.552C36.1382 26.1307 36.2175 26.8307 36.2175 27.652V28.548C36.2175 29.3693 36.1382 30.0693 35.9795 30.648C35.8302 31.2173 35.6155 31.684 35.3355 32.048C35.0555 32.412 34.7149 32.678 34.3135 32.846C33.9215 33.014 33.4829 33.098 32.9975 33.098ZM32.9975 32.174C33.3335 32.174 33.6369 32.118 33.9075 32.006C34.1875 31.8847 34.4209 31.684 34.6075 31.404C34.8035 31.124 34.9529 30.7507 35.0555 30.284C35.1582 29.8173 35.2095 29.2387 35.2095 28.548V27.652C35.2095 26.9613 35.1582 26.3873 35.0555 25.93C34.9529 25.4633 34.8035 25.09 34.6075 24.81C34.4115 24.53 34.1782 24.3293 33.9075 24.208C33.6369 24.0867 33.3335 24.026 32.9975 24.026C32.6615 24.026 32.3535 24.0867 32.0735 24.208C31.8029 24.32 31.5695 24.516 31.3735 24.796C31.1869 25.076 31.0422 25.4493 30.9395 25.916C30.8369 26.3827 30.7855 26.9613 30.7855 27.652V28.548C30.7855 29.2387 30.8369 29.8173 30.9395 30.284C31.0422 30.7413 31.1915 31.11 31.3875 31.39C31.5835 31.67 31.8169 31.8707 32.0875 31.992C32.3582 32.1133 32.6615 32.174 32.9975 32.174Z" fill="white"/>
<defs>
<filter id="filter0_d_1633_161686" x="0" y="0" width="66" height="66" filterUnits="userSpaceOnUse" color-interpolation-filters="sRGB">
<feFlood flood-opacity="0" result="BackgroundImageFix"/>
<feColorMatrix in="SourceAlpha" type="matrix" values="0 0 0 0 0 0 0 0 0 0 0 0 0 0 0 0 0 0 127 0" result="hardAlpha"/>
<feOffset dy="5"/>
<feGaussianBlur stdDeviation="10"/>
<feComposite in2="hardAlpha" operator="out"/>
<feColorMatrix type="matrix" values="0 0 0 0 0.247135 0 0 0 0 0.259458 0 0 0 0 0.270833 0 0 0 0.05 0"/>
<feBlend mode="normal" in2="BackgroundImageFix" result="effect1_dropShadow_1633_161686"/>
<feBlend mode="normal" in="SourceGraphic" in2="effect1_dropShadow_1633_161686" result="shape"/>
</filter>
</defs>
</svg>
