<svg width="20" height="16" viewBox="0 0 20 16" fill="none" xmlns="http://www.w3.org/2000/svg">
<path d="M1 3.625L8.34843 8.62601C8.94348 9.03098 9.24101 9.23346 9.56464 9.31189C9.85051 9.38117 10.1495 9.38117 10.4354 9.31189C10.759 9.23346 11.0565 9.03098 11.6516 8.62601L19 3.625M5.32 15H14.68C16.1921 15 16.9482 15 17.5258 14.7139C18.0338 14.4622 18.4469 14.0607 18.7057 13.5667C19 13.0052 19 12.2701 19 10.8V5.2C19 3.72986 19 2.99479 18.7057 2.43327C18.4469 1.93935 18.0338 1.53778 17.5258 1.28611C16.9482 1 16.1921 1 14.68 1H5.32C3.80786 1 3.05179 1 2.47423 1.28611C1.96619 1.53778 1.55314 1.93935 1.29428 2.43327C1 2.99479 1 3.72986 1 5.2V10.8C1 12.2701 1 13.0052 1.29428 13.5667C1.55314 14.0607 1.96619 14.4622 2.47423 14.7139C3.05179 15 3.80786 15 5.32 15Z" stroke="#747883" stroke-width="1.5" stroke-linecap="round" stroke-linejoin="round"/>
</svg>
