<svg width="30" height="22" viewBox="0 0 30 22" fill="none" xmlns="http://www.w3.org/2000/svg">
<path d="M2.22683 11.9507C2.04525 11.6632 1.95446 11.5195 1.90363 11.2977C1.86546 11.1312 1.86546 10.8685 1.90363 10.7019C1.95446 10.4802 2.04525 10.3365 2.22683 10.0489C3.72737 7.67296 8.19387 1.6665 15.0005 1.6665C21.8072 1.6665 26.2737 7.67296 27.7742 10.0489C27.9558 10.3365 28.0466 10.4802 28.0974 10.7019C28.1356 10.8685 28.1356 11.1312 28.0974 11.2977C28.0466 11.5195 27.9558 11.6632 27.7742 11.9507C26.2737 14.3267 21.8072 20.3332 15.0005 20.3332C8.19387 20.3332 3.72737 14.3267 2.22683 11.9507Z" stroke="#E0E1E3" stroke-width="2" stroke-linecap="round" stroke-linejoin="round"/>
<path d="M15.0005 14.9998C17.2097 14.9998 19.0005 13.209 19.0005 10.9998C19.0005 8.7907 17.2097 6.99984 15.0005 6.99984C12.7914 6.99984 11.0005 8.7907 11.0005 10.9998C11.0005 13.209 12.7914 14.9998 15.0005 14.9998Z" stroke="#E0E1E3" stroke-width="2" stroke-linecap="round" stroke-linejoin="round"/>
</svg>
