<svg width="190" height="60" viewBox="0 0 190 60" fill="none" xmlns="http://www.w3.org/2000/svg">
<g clip-path="url(#clip0_1805_66895)">
<path d="M76.1291 17.7886H71.4219V14.5981H84.468V17.7886H79.7608V30.9656H76.1269V17.7886H76.1291Z" fill="#333333"/>
<path d="M93.9997 29.022C93.4407 29.7312 92.7344 30.2775 91.8787 30.6628C91.0252 31.0481 90.1397 31.2407 89.2221 31.2407C88.3515 31.2407 87.5321 31.101 86.764 30.8237C85.9958 30.5463 85.3279 30.1504 84.7603 29.6339C84.1927 29.1173 83.7468 28.497 83.4203 27.7729C83.0938 27.0489 82.9316 26.2401 82.9316 25.3467C82.9316 24.4533 83.0938 23.6445 83.4203 22.9205C83.7468 22.1964 84.1927 21.5761 84.7603 21.0595C85.3279 20.543 85.9958 20.1471 86.764 19.8697C87.5321 19.5924 88.3515 19.4526 89.2221 19.4526C90.0287 19.4526 90.7627 19.5924 91.4242 19.8697C92.0836 20.1471 92.6426 20.543 93.1014 21.0595C93.5601 21.5761 93.9122 22.1964 94.1619 22.9205C94.4094 23.6445 94.5353 24.4533 94.5353 25.3467V26.4328H86.4268C86.5677 27.0954 86.8685 27.6226 87.3358 28.0164C87.801 28.4102 88.3771 28.6049 89.0599 28.6049C89.6339 28.6049 90.1204 28.4779 90.5152 28.2239C90.91 27.9698 91.2556 27.6416 91.5522 27.2415L93.9997 29.022ZM91.0401 24.0764C91.0551 23.49 90.8609 22.9903 90.4576 22.5733C90.0543 22.1583 89.5336 21.9487 88.8956 21.9487C88.5073 21.9487 88.1659 22.0101 87.8714 22.1329C87.5769 22.2557 87.323 22.4145 87.1139 22.6071C86.9048 22.7998 86.7405 23.0221 86.6253 23.2783C86.51 23.5344 86.4418 23.7991 86.4268 24.0764H91.0401Z" fill="#333333"/>
<path d="M96.7012 13.4888H100.196V30.9634H96.7012V13.4888Z" fill="#333333"/>
<path d="M113.43 29.022C112.871 29.7312 112.165 30.2775 111.309 30.6628C110.456 31.0481 109.57 31.2407 108.653 31.2407C107.782 31.2407 106.963 31.101 106.195 30.8237C105.426 30.5463 104.759 30.1504 104.191 29.6339C103.623 29.1173 103.177 28.497 102.851 27.7729C102.524 27.0489 102.362 26.2401 102.362 25.3467C102.362 24.4533 102.524 23.6445 102.851 22.9205C103.177 22.1964 103.623 21.5761 104.191 21.0595C104.759 20.543 105.426 20.1471 106.195 19.8697C106.963 19.5924 107.782 19.4526 108.653 19.4526C109.459 19.4526 110.193 19.5924 110.855 19.8697C111.514 20.1471 112.073 20.543 112.532 21.0595C112.991 21.5761 113.343 22.1964 113.593 22.9205C113.84 23.6445 113.966 24.4533 113.966 25.3467V26.4328H105.857C105.998 27.0954 106.299 27.6226 106.766 28.0164C107.232 28.4102 107.808 28.6049 108.491 28.6049C109.065 28.6049 109.551 28.4779 109.946 28.2239C110.341 27.9698 110.686 27.6416 110.983 27.2415L113.43 29.022ZM110.471 24.0764C110.486 23.49 110.292 22.9903 109.888 22.5733C109.485 22.1583 108.964 21.9487 108.326 21.9487C107.938 21.9487 107.597 22.0101 107.302 22.1329C107.008 22.2557 106.754 22.4145 106.545 22.6071C106.335 22.7998 106.171 23.0221 106.056 23.2783C105.941 23.5344 105.872 23.7991 105.857 24.0764H110.471Z" fill="#333333"/>
<path d="M121.163 26.5957H115.432V23.8223H121.163V26.5957Z" fill="#333333"/>
<path d="M131.437 31.3803C130.178 31.3803 129.021 31.1601 127.965 30.7219C126.909 30.2836 126.004 29.6781 125.251 28.9075C124.498 28.1369 123.907 27.2286 123.48 26.1807C123.053 25.1327 122.84 24 122.84 22.7827C122.84 21.5653 123.053 20.4327 123.48 19.3847C123.907 18.3367 124.498 17.4285 125.251 16.6579C126.004 15.8872 126.909 15.2817 127.965 14.8435C129.021 14.4031 130.178 14.1851 131.437 14.1851C132.696 14.1851 133.852 14.4052 134.909 14.8435C135.965 15.2817 136.87 15.8872 137.623 16.6579C138.376 17.4285 138.967 18.3367 139.394 19.3847C139.821 20.4327 140.034 21.5653 140.034 22.7827C140.034 24 139.821 25.1327 139.394 26.1807C138.967 27.2286 138.376 28.139 137.623 28.9075C136.87 29.6781 135.965 30.2836 134.909 30.7219C133.852 31.1601 132.696 31.3803 131.437 31.3803ZM131.437 29.2992C132.384 29.2992 133.238 29.1256 134 28.7783C134.761 28.4311 135.412 27.9654 135.956 27.3789C136.501 26.7925 136.919 26.1044 137.215 25.3105C137.51 24.5166 137.657 23.674 137.657 22.7784C137.657 21.885 137.51 21.0403 137.215 20.2464C136.921 19.4524 136.501 18.7623 135.956 18.1779C135.412 17.5915 134.759 17.1257 134 16.7785C133.238 16.4313 132.384 16.2577 131.437 16.2577C130.49 16.2577 129.634 16.4313 128.874 16.7785C128.112 17.1257 127.462 17.5915 126.918 18.1779C126.373 18.7644 125.955 19.4524 125.659 20.2464C125.364 21.0403 125.215 21.8829 125.215 22.7784C125.215 23.6719 125.362 24.5166 125.659 25.3105C125.953 26.1044 126.373 26.7946 126.918 27.3789C127.462 27.9654 128.112 28.4311 128.874 28.7783C129.636 29.1256 130.49 29.2992 131.437 29.2992Z" fill="#333333"/>
<path d="M142.715 20.0073H144.812V21.5782H144.859C145.263 20.9939 145.817 20.5387 146.526 20.2148C147.232 19.8909 147.958 19.73 148.704 19.73C149.558 19.73 150.33 19.8761 151.022 20.1682C151.713 20.4604 152.302 20.869 152.793 21.394C153.281 21.9191 153.659 22.5309 153.924 23.2317C154.188 23.9325 154.321 24.684 154.321 25.4864C154.321 26.3036 154.188 27.0616 153.924 27.7623C153.659 28.4631 153.284 29.0728 152.793 29.5873C152.304 30.1039 151.713 30.5082 151.022 30.8004C150.33 31.0926 149.558 31.2407 148.704 31.2407C147.913 31.2407 147.166 31.0756 146.468 30.7432C145.77 30.4108 145.233 29.962 144.861 29.3904H144.815V37.482H142.717V20.0073H142.715ZM148.446 21.6714C147.887 21.6714 147.381 21.7688 146.931 21.9593C146.481 22.152 146.101 22.4145 145.79 22.7448C145.478 23.0771 145.239 23.4773 145.068 23.9473C144.898 24.4173 144.812 24.9296 144.812 25.4843C144.812 26.039 144.898 26.5513 145.068 27.0213C145.239 27.4913 145.48 27.8915 145.79 28.2239C146.101 28.5562 146.481 28.8166 146.931 29.0093C147.381 29.202 147.887 29.2994 148.446 29.2994C149.005 29.2994 149.511 29.2041 149.961 29.0093C150.412 28.8166 150.791 28.5541 151.103 28.2239C151.414 27.8936 151.653 27.4913 151.824 27.0213C151.995 26.5513 152.08 26.039 152.08 25.4843C152.08 24.9296 151.995 24.4173 151.824 23.9473C151.653 23.4773 151.412 23.0771 151.103 22.7448C150.791 22.4145 150.412 22.152 149.961 21.9593C149.509 21.7688 149.005 21.6714 148.446 21.6714Z" fill="#333333"/>
<path d="M162.867 21.8109H159.862V26.7819C159.862 27.091 159.871 27.3938 159.886 27.6944C159.901 27.995 159.958 28.2639 160.061 28.5032C160.161 28.7424 160.317 28.935 160.526 29.0811C160.735 29.2272 161.042 29.3013 161.446 29.3013C161.693 29.3013 161.949 29.278 162.214 29.2314C162.478 29.1849 162.72 29.1002 162.935 28.9774V30.8722C162.685 31.0119 162.365 31.1072 161.968 31.1601C161.572 31.2131 161.266 31.2406 161.049 31.2406C160.24 31.2406 159.617 31.1284 159.173 30.9061C158.731 30.6838 158.405 30.3937 158.196 30.0402C157.987 29.6866 157.861 29.2886 157.822 28.8504C157.784 28.41 157.765 27.9675 157.765 27.5208V21.8109H155.341V20.0072H157.765V16.9331H159.862V20.0072H162.867V21.8109Z" fill="#333333"/>
<path d="M165.243 16.0782C165.243 15.6632 165.395 15.3033 165.698 15.0027C166.001 14.7021 166.361 14.5518 166.782 14.5518C167.2 14.5518 167.563 14.7021 167.866 15.0027C168.169 15.3033 168.32 15.6611 168.32 16.0782C168.32 16.4953 168.169 16.8531 167.866 17.1537C167.563 17.4543 167.202 17.6046 166.782 17.6046C166.361 17.6046 166.001 17.4543 165.698 17.1537C165.395 16.8531 165.243 16.4932 165.243 16.0782ZM165.732 20.0076H167.829V30.9636H165.732V20.0076Z" fill="#333333"/>
<path d="M179.06 22.9205C178.671 22.5203 178.264 22.2155 177.837 22.008C177.41 21.8005 176.9 21.6968 176.311 21.6968C175.737 21.6968 175.236 21.8005 174.809 22.008C174.382 22.2155 174.024 22.5013 173.738 22.8633C173.45 23.2253 173.232 23.6424 173.085 24.1124C172.938 24.5824 172.863 25.0715 172.863 25.5796C172.863 26.0877 172.949 26.5704 173.119 27.0234C173.29 27.4786 173.531 27.8745 173.84 28.2133C174.152 28.552 174.523 28.8188 174.959 29.0114C175.394 29.2041 175.883 29.3015 176.427 29.3015C177.018 29.3015 177.521 29.1977 177.942 28.9902C178.36 28.7828 178.748 28.4779 179.107 28.0778L180.598 29.5576C180.054 30.1589 179.423 30.5908 178.699 30.8512C177.976 31.1116 177.212 31.245 176.405 31.245C175.552 31.245 174.771 31.1052 174.065 30.8279C173.358 30.5505 172.748 30.161 172.236 29.6614C171.724 29.1617 171.327 28.5605 171.047 27.8576C170.768 27.1568 170.627 26.3819 170.627 25.5351C170.627 24.6883 170.768 23.9092 171.047 23.1999C171.327 22.4907 171.719 21.8831 172.223 21.3729C172.727 20.8647 173.333 20.4667 174.041 20.183C174.747 19.8972 175.535 19.7554 176.405 19.7554C177.212 19.7554 177.986 19.8972 178.723 20.183C179.461 20.4688 180.101 20.9028 180.645 21.4893L179.06 22.9205Z" fill="#333333"/>
<path d="M188.263 22.7576C188.013 22.4485 187.708 22.1902 187.343 21.9828C186.978 21.7753 186.532 21.6715 186.003 21.6715C185.506 21.6715 185.075 21.7753 184.71 21.9828C184.345 22.1902 184.162 22.4951 184.162 22.8952C184.162 23.2192 184.266 23.4817 184.475 23.6807C184.684 23.8818 184.934 24.0427 185.22 24.1655C185.508 24.2883 185.813 24.3814 186.14 24.4428C186.466 24.5042 186.746 24.5593 186.978 24.6037C187.428 24.7117 187.851 24.843 188.248 24.9975C188.645 25.1521 188.986 25.3511 189.272 25.5988C189.56 25.8465 189.784 26.145 189.948 26.5007C190.111 26.8564 190.194 27.2861 190.194 27.7942C190.194 28.4103 190.062 28.9396 189.797 29.3778C189.532 29.8182 189.191 30.176 188.773 30.4533C188.352 30.7307 187.877 30.9318 187.341 31.0546C186.805 31.1774 186.265 31.2388 185.721 31.2388C184.804 31.2388 184.002 31.0991 183.31 30.8217C182.619 30.5444 182.002 30.0363 181.458 29.2953L183.041 28.0017C183.383 28.3405 183.763 28.6411 184.183 28.9036C184.603 29.1661 185.115 29.2974 185.721 29.2974C185.986 29.2974 186.253 29.2699 186.526 29.2169C186.797 29.164 187.038 29.0772 187.247 28.9629C187.456 28.8464 187.627 28.7004 187.759 28.5225C187.891 28.3447 187.958 28.1414 187.958 27.9107C187.958 27.6016 187.859 27.3475 187.665 27.1485C187.471 26.9474 187.239 26.7907 186.965 26.6743C186.694 26.5578 186.406 26.4668 186.103 26.3969C185.8 26.3271 185.534 26.2699 185.299 26.2233C184.849 26.1154 184.422 25.9926 184.016 25.8528C183.613 25.7131 183.255 25.5289 182.945 25.2982C182.634 25.0674 182.386 24.7752 182.201 24.4196C182.015 24.066 181.921 23.6256 181.921 23.1027C181.921 22.5332 182.041 22.0357 182.282 21.6123C182.523 21.1888 182.841 20.8374 183.238 20.5601C183.635 20.2827 184.085 20.0752 184.588 19.9355C185.092 19.7958 185.602 19.728 186.114 19.728C186.859 19.728 187.574 19.8678 188.256 20.143C188.939 20.4203 189.483 20.8819 189.887 21.5297L188.263 22.7576Z" fill="#333333"/>
<path d="M72.4736 41.1172H73.3954L74.5476 44.5596L75.7106 41.1172H76.6324L77.4667 46.0522H76.5513L76.0178 42.9358L74.9616 46.0522H74.1273L73.0796 42.9358L72.5333 46.0522H71.6094L72.4736 41.1172Z" fill="#5499D1"/>
<path d="M79.7414 41.1172H80.7016L82.6156 46.0522H81.6319L81.2436 45.036H79.2143L78.8089 46.0522H77.8252L79.7414 41.1172ZM80.2257 42.4256L79.5578 44.1193H80.8893L80.2257 42.4256Z" fill="#5499D1"/>
<path d="M83.3428 41.1172H85.8116V42.036H84.2838V46.0522H83.3428V41.1172Z" fill="#5499D1"/>
<path d="M88.0695 41.1172H89.0297L90.9437 46.0522H89.96L89.5717 45.036H87.5424L87.137 46.0522H86.1533L88.0695 41.1172ZM88.556 42.4256L87.8881 44.1193H89.2196L88.556 42.4256Z" fill="#5499D1"/>
<path d="M91.9103 44.7672C92.162 45.1144 92.4544 45.288 92.7915 45.288C93.0156 45.288 93.1969 45.2245 93.3335 45.0996C93.4701 44.9747 93.5405 44.8074 93.5405 44.5999C93.5405 44.3967 93.4743 44.2273 93.3399 44.0939C93.2055 43.9606 92.9281 43.8928 92.5056 43.8928H92.3029V43.0544H92.5056C92.7552 43.0544 92.9451 42.9973 93.0753 42.8829C93.2055 42.7686 93.2695 42.6162 93.2695 42.4235C93.2695 42.2478 93.2161 42.106 93.1073 42.0043C92.9985 41.9027 92.8555 41.8498 92.6763 41.8498C92.4629 41.8498 92.2453 41.9535 92.0212 42.161L91.4621 41.5428C91.763 41.2739 92.0127 41.113 92.2133 41.0622C92.4138 41.0093 92.5995 40.9839 92.768 40.9839C93.1756 40.9839 93.5149 41.1003 93.7923 41.3353C94.0697 41.5703 94.2062 41.8879 94.2062 42.2859C94.2062 42.4616 94.1742 42.6352 94.1123 42.8025C94.0505 42.9697 93.8776 43.1476 93.5938 43.336C94.1764 43.5922 94.4666 44.0325 94.4666 44.655C94.4666 45.1144 94.3108 45.4828 94.0014 45.7601C93.692 46.0396 93.293 46.1772 92.8043 46.1772C92.4971 46.1772 92.2218 46.1221 91.9785 46.012C91.7353 45.902 91.4685 45.6627 91.1826 45.2965L91.9103 44.7672Z" fill="#5499D1"/>
<path d="M98.9964 41.1172V46.0522H98.049V42.9612L96.1947 46.0522H95.3711V41.1172H96.3185V44.3077L98.1984 41.1172H98.9964Z" fill="#5499D1"/>
<path d="M100.13 41.1172H101.09V42.9781H102.75V41.1172H103.708V46.0522H102.75V43.8885H101.09V46.0522H100.13V41.1172Z" fill="#5499D1"/>
<path d="M109.131 40.9922C109.835 40.9922 110.439 41.2441 110.947 41.7501C111.452 42.2561 111.706 42.8722 111.706 43.5984C111.706 44.3182 111.457 44.9279 110.957 45.4275C110.458 45.9272 109.852 46.1749 109.139 46.1749C108.392 46.1749 107.771 45.9187 107.279 45.4064C106.783 44.894 106.538 44.2864 106.538 43.5814C106.538 43.1093 106.653 42.6753 106.884 42.2794C107.114 41.8835 107.43 41.5702 107.833 41.3373C108.232 41.1086 108.665 40.9922 109.131 40.9922ZM109.12 41.911C108.659 41.911 108.273 42.0698 107.959 42.3874C107.646 42.7049 107.488 43.1093 107.488 43.5984C107.488 44.1446 107.686 44.5765 108.081 44.894C108.388 45.1417 108.74 45.2666 109.137 45.2666C109.585 45.2666 109.969 45.1058 110.285 44.784C110.601 44.4621 110.759 44.0641 110.759 43.592C110.759 43.122 110.599 42.724 110.281 42.4001C109.963 42.0762 109.577 41.911 109.12 41.911Z" fill="#5499D1"/>
<path d="M112.596 41.1172H116.174V46.0522H115.216V41.9958H113.556V46.0522H112.596V41.1172Z" fill="#5499D1"/>
<path d="M116.819 41.1172H119.567V42.0424H118.66V46.0522H117.7V42.0424H116.816V41.1172H116.819Z" fill="#5499D1"/>
<path d="M123.839 41.1172V46.0522H122.892V42.9612L121.038 46.0522H120.214V41.1172H121.161V44.3077L123.041 41.1172H123.839Z" fill="#5499D1"/>
<path d="M127.153 43.8885H126.835C126.378 43.8885 126.039 43.8652 125.821 43.8186C125.604 43.7721 125.395 43.6725 125.198 43.518C125 43.3656 124.861 43.1793 124.778 42.9612C124.697 42.7431 124.656 42.4552 124.656 42.0953V41.1172H125.616V42.0805C125.616 42.415 125.678 42.65 125.8 42.7812C125.922 42.9125 126.182 42.9781 126.579 42.9781H127.153V41.1172H128.107V46.0522H127.153V43.8885Z" fill="#5499D1"/>
<path d="M129.246 41.1172H131.962V42.036H130.187V42.9294H131.962V43.8313H130.187V45.1291H131.962V46.0522H129.246V41.1172Z" fill="#5499D1"/>
<path d="M137.416 41.983L136.754 42.6097C136.304 42.1375 135.796 41.9004 135.233 41.9004C134.757 41.9004 134.358 42.0613 134.032 42.3831C133.705 42.7049 133.543 43.103 133.543 43.5751C133.543 43.9032 133.615 44.1975 133.758 44.4516C133.904 44.7077 134.106 44.9067 134.371 45.0528C134.635 45.1989 134.928 45.2709 135.25 45.2709C135.525 45.2709 135.775 45.2201 136.003 45.1184C136.232 45.0168 136.481 44.8305 136.754 44.5617L137.397 45.2264C137.03 45.5821 136.682 45.8298 136.355 45.9674C136.029 46.105 135.655 46.1728 135.235 46.1728C134.463 46.1728 133.829 45.9293 133.336 45.4424C132.843 44.9554 132.598 44.333 132.598 43.5708C132.598 43.0797 132.711 42.6414 132.935 42.2582C133.159 41.875 133.481 41.568 133.899 41.3352C134.318 41.1023 134.768 40.9858 135.25 40.9858C135.66 40.9858 136.054 41.0726 136.434 41.2441C136.814 41.422 137.141 41.6675 137.416 41.983Z" fill="#5499D1"/>
<path d="M138.253 41.1172H139.211V42.8193L140.562 41.1172H141.699L139.962 43.319L141.868 46.0522H140.745L139.211 43.8589V46.0522H138.253V41.1172Z" fill="#5499D1"/>
<path d="M146.162 41.1172V46.0522H145.215V42.9612L143.361 46.0522H142.537V41.1172H143.485V44.3077L145.364 41.1172H146.162Z" fill="#5499D1"/>
<path d="M146.976 41.1172H148.04L149.086 42.7008L150.134 41.1172H151.198L149.619 43.5095L151.297 46.0522H150.232L149.086 44.3161L147.942 46.0522H146.871L148.555 43.5074L146.976 41.1172Z" fill="#5499D1"/>
<path d="M153.942 41.1172H157.521V46.0522H156.563V41.9958H154.903V46.0522H153.942V41.1172Z" fill="#5499D1"/>
<path d="M158.654 41.1172H159.659C160.203 41.1172 160.593 41.1659 160.834 41.2675C161.073 41.367 161.263 41.5279 161.402 41.7502C161.541 41.9725 161.609 42.2393 161.609 42.5505C161.609 42.8956 161.517 43.1814 161.336 43.41C161.154 43.6387 160.909 43.7975 160.597 43.8864C160.414 43.9372 160.081 43.9647 159.599 43.9647V46.0543H158.651V41.1172H158.654ZM159.601 43.0459H159.902C160.139 43.0459 160.303 43.0289 160.395 42.9951C160.486 42.9612 160.559 42.9062 160.612 42.8278C160.666 42.7495 160.691 42.6563 160.691 42.5462C160.691 42.3557 160.617 42.216 160.467 42.1292C160.358 42.0635 160.158 42.0318 159.866 42.0318H159.599V43.0459H159.601Z" fill="#5499D1"/>
<path d="M166.159 41.1172V46.0522H165.211V42.9612L163.357 46.0522H162.533V41.1172H163.481V44.3077L165.361 41.1172H166.159Z" fill="#5499D1"/>
<path d="M167.292 46.0522V41.1172H169.893V42.0339H168.239V42.9802H168.446C168.867 42.9802 169.208 43.0268 169.475 43.1179C169.742 43.2089 169.961 43.3825 170.139 43.6365C170.316 43.8906 170.403 44.1912 170.403 44.5384C170.403 44.8835 170.337 45.1566 170.203 45.362C170.068 45.5674 169.887 45.7325 169.652 45.8616C169.417 45.9908 169.095 46.0543 168.683 46.0543H167.292V46.0522ZM168.239 43.8186V45.1567H168.476C168.909 45.1567 169.183 45.1016 169.298 44.9894C169.413 44.8772 169.471 44.7269 169.471 44.5363C169.471 44.0579 169.125 43.8186 168.436 43.8186H168.239Z" fill="#5499D1"/>
<path d="M173.582 40.9922C174.286 40.9922 174.89 41.2441 175.398 41.7501C175.903 42.2561 176.157 42.8722 176.157 43.5984C176.157 44.3182 175.908 44.9279 175.408 45.4275C174.909 45.9272 174.303 46.1749 173.59 46.1749C172.844 46.1749 172.223 45.9187 171.73 45.4064C171.235 44.894 170.989 44.2864 170.989 43.5814C170.989 43.1093 171.104 42.6753 171.335 42.2794C171.565 41.8835 171.881 41.5702 172.284 41.3373C172.684 41.1086 173.119 40.9922 173.582 40.9922ZM173.573 41.911C173.112 41.911 172.726 42.0698 172.413 42.3874C172.099 42.7049 171.941 43.1093 171.941 43.5984C171.941 44.1446 172.139 44.5765 172.534 44.894C172.841 45.1417 173.193 45.2666 173.59 45.2666C174.038 45.2666 174.423 45.1058 174.738 44.784C175.054 44.4621 175.212 44.0641 175.212 43.592C175.212 43.122 175.052 42.724 174.734 42.4001C174.416 42.0762 174.028 41.911 173.573 41.911Z" fill="#5499D1"/>
<path d="M177.047 41.1172H178.052C178.596 41.1172 178.987 41.1659 179.228 41.2675C179.467 41.367 179.657 41.5279 179.795 41.7502C179.934 41.9725 180.002 42.2393 180.002 42.5505C180.002 42.8956 179.911 43.1814 179.729 43.41C179.548 43.6387 179.302 43.7975 178.991 43.8864C178.807 43.9372 178.475 43.9647 177.992 43.9647V46.0543H177.045V41.1172H177.047ZM177.994 43.0459H178.295C178.532 43.0459 178.696 43.0289 178.788 42.9951C178.88 42.9612 178.953 42.9062 179.006 42.8278C179.059 42.7495 179.085 42.6563 179.085 42.5462C179.085 42.3557 179.01 42.216 178.861 42.1292C178.752 42.0635 178.551 42.0318 178.259 42.0318H177.992V43.0459H177.994Z" fill="#5499D1"/>
<path d="M183.278 40.9922C183.982 40.9922 184.586 41.2441 185.094 41.7501C185.6 42.2561 185.854 42.8722 185.854 43.5984C185.854 44.3182 185.604 44.9279 185.105 45.4275C184.605 45.9272 183.999 46.1749 183.287 46.1749C182.54 46.1749 181.919 45.9187 181.426 45.4064C180.931 44.894 180.686 44.2864 180.686 43.5814C180.686 43.1093 180.801 42.6753 181.031 42.2794C181.262 41.8835 181.577 41.5702 181.981 41.3373C182.38 41.1086 182.813 40.9922 183.278 40.9922ZM183.267 41.911C182.807 41.911 182.42 42.0698 182.107 42.3874C181.793 42.7049 181.635 43.1093 181.635 43.5984C181.635 44.1446 181.834 44.5765 182.228 44.894C182.536 45.1417 182.888 45.2666 183.285 45.2666C183.733 45.2666 184.117 45.1058 184.433 44.784C184.748 44.4621 184.906 44.0641 184.906 43.592C184.906 43.122 184.746 42.724 184.428 42.4001C184.11 42.0762 183.724 41.911 183.267 41.911Z" fill="#5499D1"/>
<path d="M186.745 46.0522V41.1172H187.528C187.983 41.1172 188.313 41.1468 188.525 41.204C188.823 41.2823 189.06 41.4284 189.235 41.6401C189.412 41.8518 189.5 42.1038 189.5 42.3917C189.5 42.5801 189.459 42.7495 189.38 42.904C189.299 43.0565 189.171 43.2004 188.99 43.3359C189.293 43.4778 189.513 43.6535 189.653 43.8652C189.794 44.0769 189.863 44.3267 189.863 44.6147C189.863 44.892 189.79 45.1439 189.645 45.3726C189.5 45.6012 189.314 45.7706 189.086 45.8849C188.858 45.9971 188.544 46.0543 188.141 46.0543H186.745V46.0522ZM187.693 42.0127V43.0522H187.9C188.13 43.0522 188.303 43.0035 188.414 42.9083C188.527 42.813 188.582 42.6817 188.582 42.5166C188.582 42.362 188.529 42.2393 188.422 42.1482C188.316 42.0572 188.153 42.0127 187.936 42.0127H187.693ZM187.693 43.8906V45.1545H187.929C188.322 45.1545 188.587 45.1058 188.725 45.0063C188.862 44.9089 188.93 44.765 188.93 44.5765C188.93 44.3648 188.849 44.1955 188.689 44.0727C188.529 43.9499 188.262 43.8885 187.889 43.8885H187.693V43.8906Z" fill="#5499D1"/>
<path d="M14.3298 44.9702C15.7227 44.9702 16.8519 43.8498 16.8519 42.4678C16.8519 41.0857 15.7227 39.9653 14.3298 39.9653C12.9368 39.9653 11.8076 41.0857 11.8076 42.4678C11.8076 43.8498 12.9368 44.9702 14.3298 44.9702Z" fill="#F9E585"/>
<path d="M53.0198 43.8759C42.7732 54.0423 26.2532 54.1883 15.8253 44.3141C15.3815 44.5576 14.8715 44.6973 14.3295 44.6973C12.6203 44.6973 11.2355 43.3233 11.2355 41.6275C11.2355 40.8907 11.4979 40.2154 11.9332 39.6861C9.54549 36.0827 8.14145 32.0264 7.71895 27.8895C7.53118 27.953 7.32846 27.989 7.11722 27.989C6.08872 27.989 5.2544 27.1612 5.2544 26.1408C5.2544 25.1203 6.08872 24.2925 7.11722 24.2925C7.28152 24.2925 7.44156 24.3158 7.59306 24.356C7.80004 17.8819 10.3948 11.4691 15.3751 6.52779C17.3126 4.60545 19.472 3.04302 21.7744 1.83838C17.0288 3.16793 12.5499 5.68518 8.81573 9.39013C-2.83701 20.9517 -2.83701 39.6967 8.81573 51.2604C20.4685 62.8241 39.3612 62.8219 51.0161 51.2604C56.1522 46.1645 59.0243 39.6734 59.6325 33.015C58.3948 36.9846 56.1927 40.7298 53.0198 43.8759Z" fill="#F9E585"/>
<path d="M7.11733 28.0654C7.9399 28.0654 8.60673 27.4037 8.60673 26.5876C8.60673 25.7715 7.9399 25.1099 7.11733 25.1099C6.29476 25.1099 5.62793 25.7715 5.62793 26.5876C5.62793 27.4037 6.29476 28.0654 7.11733 28.0654Z" fill="#F9E585"/>
<path d="M59.6305 6.81152C59.9015 8.58778 61.3077 9.98296 63.098 10.2518C61.3077 10.5207 59.9015 11.9159 59.6305 13.6922C59.3595 11.9159 57.9534 10.5207 56.1631 10.2518C57.9534 9.98508 59.3595 8.5899 59.6305 6.81152Z" fill="#F9E585"/>
<path d="M23.2937 9.25244C23.4324 10.1607 24.1515 10.8742 25.0669 11.0118C24.1515 11.1494 23.4324 11.8628 23.2937 12.7711C23.155 11.8628 22.4359 11.1494 21.5205 11.0118C22.4359 10.8763 23.155 10.1628 23.2937 9.25244Z" fill="#F9E585"/>
<path d="M5.31812 0.074707C5.45682 0.98295 6.17591 1.69642 7.09132 1.83403C6.17591 1.97164 5.45682 2.68511 5.31812 3.59335C5.17942 2.68511 4.46033 1.97164 3.54492 1.83403C4.46033 1.69642 5.17729 0.98295 5.31812 0.074707Z" fill="#F9E585"/>
<path d="M61.0659 48.3154C61.3326 50.0621 62.7132 51.4318 64.4736 51.6965C62.7132 51.9611 61.3326 53.3309 61.0659 55.0775C60.7992 53.3309 59.4186 51.9611 57.6582 51.6965C59.4186 51.4318 60.7992 50.0621 61.0659 48.3154Z" fill="#F9E585"/>
<path d="M59.6305 21.2056C59.7841 22.2133 60.5821 23.0051 61.5978 23.1575C60.5821 23.31 59.7841 24.1018 59.6305 25.1095C59.4768 24.1018 58.6788 23.31 57.6631 23.1575C58.6788 23.003 59.4768 22.2133 59.6305 21.2056Z" fill="#F9E585"/>
<path d="M54.7334 24.0723L51.1764 13.8212C51.1038 13.6116 50.8712 13.4994 50.66 13.5714L49.3776 14.0096C49.2453 14.0541 49.1535 14.16 49.1172 14.2849L40.0784 17.3737L39.3721 15.3392L42.3338 14.3272C42.4341 14.4754 42.6262 14.5474 42.8033 14.486L44.0537 14.0583C44.2649 13.9864 44.378 13.7556 44.3055 13.546L43.2578 10.527C43.1852 10.3174 42.9526 10.2052 42.7414 10.2772L41.4931 10.7048C41.2819 10.7768 41.1688 11.0076 41.2413 11.2172L35.4736 13.1882C35.3307 13.2369 35.2347 13.3597 35.209 13.4973C35.192 13.5015 35.1728 13.5037 35.1557 13.51L32.561 14.3971C32.3497 14.4691 32.2366 14.6998 32.3092 14.9094L32.9942 16.8805C33.0667 17.09 33.2993 17.2023 33.5105 17.1303L36.1052 16.2432C36.1223 16.2368 36.1394 16.2284 36.1543 16.2199C36.261 16.3131 36.4125 16.3512 36.5555 16.3025L36.7155 16.2474L37.4218 18.282L32.2004 20.0667C31.6712 20.2467 31.3874 20.8246 31.5709 21.3497L31.7245 21.7943L29.77 22.4612L18.6293 26.2678C18.1492 26.4329 17.891 26.9558 18.0575 27.4343L18.465 28.6114L18.4693 28.6262L17.9017 28.821L10.1837 31.4568C10.0685 31.4039 9.93192 31.3912 9.80389 31.4356L8.13952 32.0051L7.61674 30.4956C7.56339 30.3411 7.42896 30.2373 7.27533 30.2098C7.27533 30.2035 7.27319 30.1992 7.27106 30.1929C7.3052 30.1675 7.3244 30.1442 7.31587 30.1251C7.30947 30.1082 7.28386 30.0997 7.24545 30.0997L7.20491 29.9833C7.23479 29.96 7.25186 29.9367 7.24545 29.9198C7.23905 29.9028 7.21131 29.8944 7.1729 29.8944L6.8507 28.9628C6.76961 28.7278 6.51782 28.6199 6.28951 28.7215L6.21269 28.7554C5.98651 28.857 5.60242 28.9882 5.35916 29.0475L5.26955 29.0687C5.02629 29.128 4.89613 29.3672 4.97721 29.6022L5.30155 30.5359C5.27595 30.557 5.26314 30.5782 5.26741 30.593C5.27381 30.6078 5.29728 30.6163 5.32929 30.6163L5.37197 30.7412C5.34636 30.7624 5.33143 30.7836 5.33783 30.7984C5.34423 30.8153 5.36983 30.8238 5.40611 30.8238C5.40824 30.8301 5.41038 30.8365 5.41464 30.8407C5.31222 30.955 5.26955 31.1202 5.32289 31.2747L5.84781 32.7842C5.84781 32.7864 5.84994 32.7864 5.84994 32.7885C5.60669 32.8901 5.47866 33.1653 5.56614 33.4173L6.63518 36.4977C6.72694 36.7602 7.01714 36.902 7.28386 36.811L11.2058 35.4709C11.336 35.4264 11.4341 35.3354 11.4917 35.221L19.2097 32.5831L19.7773 32.3883L20.1913 33.5803C20.3577 34.0566 20.8848 34.3128 21.367 34.1477L26.9469 32.2401V34.7002H24.7128C24.4312 34.7002 24.2029 34.9289 24.2029 35.2062V35.9409C24.2029 36.2203 24.4312 36.4469 24.7128 36.4469H27.3524L20.8954 53.2038C20.8869 53.225 20.8826 53.2462 20.8784 53.2652L18.3135 59.9193H20.219L26.3537 44.0092L26.3431 44.005L28.9036 37.3593V43.0967V48.6986V59.9172H30.6832V43.1052H30.6811V37.4504L36.995 53.8411C37.01 53.8792 37.0313 53.911 37.0569 53.9385L39.3657 59.9278H41.2712L34.8932 43.3846L34.8719 43.3931L32.1982 36.4532H34.8698C35.1514 36.4532 35.3798 36.2246 35.3798 35.9472V35.2126C35.3798 34.9331 35.1493 34.7066 34.8698 34.7066H32.7637V30.2543L33.8007 29.9007L34.3534 29.7123L34.4579 29.6763L34.4537 29.6657L34.6116 30.1209C34.793 30.646 35.3755 30.9275 35.9047 30.7455L52.8237 24.9636C52.9282 25.0398 53.0669 25.0673 53.1992 25.0229L54.4816 24.5846C54.6929 24.5127 54.806 24.2819 54.7334 24.0723Z" fill="#5499D1"/>
</g>
<defs>
<clipPath id="clip0_1805_66895">
<rect width="190" height="60" fill="white"/>
</clipPath>
</defs>
</svg>
