<svg width="48" height="48" viewBox="0 0 48 48" fill="none" xmlns="http://www.w3.org/2000/svg">
<rect width="48" height="48" fill="#E5E5E5"/>
<g clip-path="url(#clip0_0_1)">
<rect width="1440" height="5226" transform="translate(-627 -2832)" fill="white"/>
<rect x="-627" y="-85" width="1440" height="218" fill="white"/>
<rect x="-192" y="-25" width="270" height="98" rx="5" fill="#F2F5F9"/>
<path d="M18 11H30" stroke="#0867D6" stroke-width="2" stroke-linecap="round" stroke-linejoin="round"/>
<path d="M18 11H30" stroke="#0696E7" stroke-width="2" stroke-linecap="round" stroke-linejoin="round"/>
<path d="M18 11H30" stroke="#208EE2" stroke-width="2" stroke-linecap="round" stroke-linejoin="round"/>
<path d="M36 18H12" stroke="#0867D6" stroke-width="2" stroke-linecap="round" stroke-linejoin="round"/>
<path d="M36 18H12" stroke="#0696E7" stroke-width="2" stroke-linecap="round" stroke-linejoin="round"/>
<path d="M36 18H12" stroke="#208EE2" stroke-width="2" stroke-linecap="round" stroke-linejoin="round"/>
<path d="M12 29H18" stroke="#0867D6" stroke-width="2" stroke-linecap="round" stroke-linejoin="round"/>
<path d="M12 29H18" stroke="#0696E7" stroke-width="2" stroke-linecap="round" stroke-linejoin="round"/>
<path d="M12 29H18" stroke="#208EE2" stroke-width="2" stroke-linecap="round" stroke-linejoin="round"/>
<path d="M34.2426 25.7574C36.5858 28.1005 36.5858 31.8995 34.2426 34.2426C31.8995 36.5858 28.1005 36.5858 25.7574 34.2426C23.4142 31.8995 23.4142 28.1005 25.7574 25.7574C28.1005 23.4142 31.8995 23.4142 34.2426 25.7574" stroke="#0867D6" stroke-width="2" stroke-linecap="round" stroke-linejoin="round"/>
<path d="M34.2426 25.7574C36.5858 28.1005 36.5858 31.8995 34.2426 34.2426C31.8995 36.5858 28.1005 36.5858 25.7574 34.2426C23.4142 31.8995 23.4142 28.1005 25.7574 25.7574C28.1005 23.4142 31.8995 23.4142 34.2426 25.7574" stroke="#0696E7" stroke-width="2" stroke-linecap="round" stroke-linejoin="round"/>
<path d="M34.2426 25.7574C36.5858 28.1005 36.5858 31.8995 34.2426 34.2426C31.8995 36.5858 28.1005 36.5858 25.7574 34.2426C23.4142 31.8995 23.4142 28.1005 25.7574 25.7574C28.1005 23.4142 31.8995 23.4142 34.2426 25.7574" stroke="#208EE2" stroke-width="2" stroke-linecap="round" stroke-linejoin="round"/>
<path d="M34 34.4419V43.9999L30 41.9999L26 43.9999V34.4419" stroke="#0867D6" stroke-width="2" stroke-linecap="round" stroke-linejoin="round"/>
<path d="M34 34.4419V43.9999L30 41.9999L26 43.9999V34.4419" stroke="#0696E7" stroke-width="2" stroke-linecap="round" stroke-linejoin="round"/>
<path d="M34 34.4419V43.9999L30 41.9999L26 43.9999V34.4419" stroke="#208EE2" stroke-width="2" stroke-linecap="round" stroke-linejoin="round"/>
<path d="M34 38H40C42.21 38 44 36.21 44 34V8C44 5.79 42.21 4 40 4H8C5.79 4 4 5.79 4 8V34C4 36.21 5.79 38 8 38H26" stroke="#0867D6" stroke-width="2" stroke-linecap="round" stroke-linejoin="round"/>
<path d="M34 38H40C42.21 38 44 36.21 44 34V8C44 5.79 42.21 4 40 4H8C5.79 4 4 5.79 4 8V34C4 36.21 5.79 38 8 38H26" stroke="#0696E7" stroke-width="2" stroke-linecap="round" stroke-linejoin="round"/>
<path d="M34 38H40C42.21 38 44 36.21 44 34V8C44 5.79 42.21 4 40 4H8C5.79 4 4 5.79 4 8V34C4 36.21 5.79 38 8 38H26" stroke="#208EE2" stroke-width="2" stroke-linecap="round" stroke-linejoin="round"/>
</g>
<defs>
<clipPath id="clip0_0_1">
<rect width="1440" height="5226" fill="white" transform="translate(-627 -2832)"/>
</clipPath>
</defs>
</svg>
