<svg width="42" height="36" viewBox="0 0 42 36" fill="none" xmlns="http://www.w3.org/2000/svg">
<rect width="42" height="36" fill="#E5E5E5"/>
<g clip-path="url(#clip0_0_1)">
<rect width="1440" height="5226" transform="translate(-330 -2839)" fill="white"/>
<rect x="-330" y="-92" width="1440" height="218" fill="white"/>
<rect x="-195" y="-32" width="270" height="98" rx="5" fill="#F2F5F9"/>
<path d="M34.4075 29.5921C35.6455 30.8301 35.6455 32.8361 34.4075 34.0721C33.1695 35.3101 31.1635 35.3101 29.9275 34.0721C28.6895 32.8341 28.6895 30.8281 29.9275 29.5921C31.1655 28.3541 33.1715 28.3541 34.4075 29.5921" stroke="#0867D6" stroke-width="2" stroke-linecap="round" stroke-linejoin="round"/>
<path d="M34.4075 29.5921C35.6455 30.8301 35.6455 32.8361 34.4075 34.0721C33.1695 35.3101 31.1635 35.3101 29.9275 34.0721C28.6895 32.8341 28.6895 30.8281 29.9275 29.5921C31.1655 28.3541 33.1715 28.3541 34.4075 29.5921" stroke="#0696E7" stroke-width="2" stroke-linecap="round" stroke-linejoin="round"/>
<path d="M34.4075 29.5921C35.6455 30.8301 35.6455 32.8361 34.4075 34.0721C33.1695 35.3101 31.1635 35.3101 29.9275 34.0721C28.6895 32.8341 28.6895 30.8281 29.9275 29.5921C31.1655 28.3541 33.1715 28.3541 34.4075 29.5921" stroke="#208EE2" stroke-width="2" stroke-linecap="round" stroke-linejoin="round"/>
<path d="M12.4078 29.5921C13.6458 30.8301 13.6458 32.8361 12.4078 34.0721C11.1698 35.3101 9.16375 35.3101 7.92775 34.0721C6.69175 32.8341 6.68975 30.8281 7.92775 29.5921C9.16575 28.3561 11.1698 28.3541 12.4078 29.5921" stroke="#0867D6" stroke-width="2" stroke-linecap="round" stroke-linejoin="round"/>
<path d="M12.4078 29.5921C13.6458 30.8301 13.6458 32.8361 12.4078 34.0721C11.1698 35.3101 9.16375 35.3101 7.92775 34.0721C6.69175 32.8341 6.68975 30.8281 7.92775 29.5921C9.16575 28.3561 11.1698 28.3541 12.4078 29.5921" stroke="#0696E7" stroke-width="2" stroke-linecap="round" stroke-linejoin="round"/>
<path d="M12.4078 29.5921C13.6458 30.8301 13.6458 32.8361 12.4078 34.0721C11.1698 35.3101 9.16375 35.3101 7.92775 34.0721C6.69175 32.8341 6.68975 30.8281 7.92775 29.5921C9.16575 28.3561 11.1698 28.3541 12.4078 29.5921" stroke="#208EE2" stroke-width="2" stroke-linecap="round" stroke-linejoin="round"/>
<path d="M17 1H25C26.104 1 27 1.896 27 3V23H1" stroke="#0867D6" stroke-width="2" stroke-linecap="round" stroke-linejoin="round"/>
<path d="M17 1H25C26.104 1 27 1.896 27 3V23H1" stroke="#0696E7" stroke-width="2" stroke-linecap="round" stroke-linejoin="round"/>
<path d="M17 1H25C26.104 1 27 1.896 27 3V23H1" stroke="#208EE2" stroke-width="2" stroke-linecap="round" stroke-linejoin="round"/>
<path d="M7 31.832H3C1.896 31.832 1 30.936 1 29.832V19" stroke="#0867D6" stroke-width="2" stroke-linecap="round" stroke-linejoin="round"/>
<path d="M7 31.832H3C1.896 31.832 1 30.936 1 29.832V19" stroke="#0696E7" stroke-width="2" stroke-linecap="round" stroke-linejoin="round"/>
<path d="M7 31.832H3C1.896 31.832 1 30.936 1 29.832V19" stroke="#208EE2" stroke-width="2" stroke-linecap="round" stroke-linejoin="round"/>
<path d="M27 7H35.646C36.464 7 37.2 7.498 37.502 8.258L40.714 16.286C40.902 16.758 41 17.262 41 17.77V29.666C41 30.77 40.104 31.666 39 31.666H35.338" stroke="#0867D6" stroke-width="2" stroke-linecap="round" stroke-linejoin="round"/>
<path d="M27 7H35.646C36.464 7 37.2 7.498 37.502 8.258L40.714 16.286C40.902 16.758 41 17.262 41 17.77V29.666C41 30.77 40.104 31.666 39 31.666H35.338" stroke="#0696E7" stroke-width="2" stroke-linecap="round" stroke-linejoin="round"/>
<path d="M27 7H35.646C36.464 7 37.2 7.498 37.502 8.258L40.714 16.286C40.902 16.758 41 17.262 41 17.77V29.666C41 30.77 40.104 31.666 39 31.666H35.338" stroke="#208EE2" stroke-width="2" stroke-linecap="round" stroke-linejoin="round"/>
<path d="M28.9998 31.8401H13.3398" stroke="#0867D6" stroke-width="2" stroke-linecap="round" stroke-linejoin="round"/>
<path d="M28.9998 31.8401H13.3398" stroke="#0696E7" stroke-width="2" stroke-linecap="round" stroke-linejoin="round"/>
<path d="M28.9998 31.8401H13.3398" stroke="#208EE2" stroke-width="2" stroke-linecap="round" stroke-linejoin="round"/>
<path d="M41 21H33V13H39.4" stroke="#0867D6" stroke-width="2" stroke-linecap="round" stroke-linejoin="round"/>
<path d="M41 21H33V13H39.4" stroke="#0696E7" stroke-width="2" stroke-linecap="round" stroke-linejoin="round"/>
<path d="M41 21H33V13H39.4" stroke="#208EE2" stroke-width="2" stroke-linecap="round" stroke-linejoin="round"/>
<path d="M1 1H11" stroke="#0867D6" stroke-width="2" stroke-linecap="round" stroke-linejoin="round"/>
<path d="M1 1H11" stroke="#0696E7" stroke-width="2" stroke-linecap="round" stroke-linejoin="round"/>
<path d="M1 1H11" stroke="#208EE2" stroke-width="2" stroke-linecap="round" stroke-linejoin="round"/>
<path d="M1 7H7" stroke="#0867D6" stroke-width="2" stroke-linecap="round" stroke-linejoin="round"/>
<path d="M1 7H7" stroke="#0696E7" stroke-width="2" stroke-linecap="round" stroke-linejoin="round"/>
<path d="M1 7H7" stroke="#208EE2" stroke-width="2" stroke-linecap="round" stroke-linejoin="round"/>
<path d="M3 13H1" stroke="#0867D6" stroke-width="2" stroke-linecap="round" stroke-linejoin="round"/>
<path d="M3 13H1" stroke="#0696E7" stroke-width="2" stroke-linecap="round" stroke-linejoin="round"/>
<path d="M3 13H1" stroke="#208EE2" stroke-width="2" stroke-linecap="round" stroke-linejoin="round"/>
</g>
<defs>
<clipPath id="clip0_0_1">
<rect width="1440" height="5226" fill="white" transform="translate(-330 -2839)"/>
</clipPath>
</defs>
</svg>
