<svg width="24" height="24" viewBox="0 0 24 24" fill="none" xmlns="http://www.w3.org/2000/svg">
<path fill-rule="evenodd" clip-rule="evenodd" d="M15.75 3H19.25C20.2169 3 21 3.78312 21 4.75V8.25C21 9.21688 20.2169 10 19.25 10H15.75C14.7831 10 14 9.21688 14 8.25V4.75C14 3.78312 14.7831 3 15.75 3Z" stroke="#0867D6" stroke-width="1.5" stroke-linecap="round" stroke-linejoin="round"/>
<path fill-rule="evenodd" clip-rule="evenodd" d="M15.75 3H19.25C20.2169 3 21 3.78312 21 4.75V8.25C21 9.21688 20.2169 10 19.25 10H15.75C14.7831 10 14 9.21688 14 8.25V4.75C14 3.78312 14.7831 3 15.75 3Z" stroke="#0696E7" stroke-width="1.5" stroke-linecap="round" stroke-linejoin="round"/>
<path fill-rule="evenodd" clip-rule="evenodd" d="M15.75 3H19.25C20.2169 3 21 3.78312 21 4.75V8.25C21 9.21688 20.2169 10 19.25 10H15.75C14.7831 10 14 9.21688 14 8.25V4.75C14 3.78312 14.7831 3 15.75 3Z" stroke="#208EE2" stroke-width="1.5" stroke-linecap="round" stroke-linejoin="round"/>
<path fill-rule="evenodd" clip-rule="evenodd" d="M15.75 14H19.25C20.2169 14 21 14.7831 21 15.75V19.25C21 20.2169 20.2169 21 19.25 21H15.75C14.7831 21 14 20.2169 14 19.25V15.75C14 14.7831 14.7831 14 15.75 14Z" stroke="#0867D6" stroke-width="1.5" stroke-linecap="round" stroke-linejoin="round"/>
<path fill-rule="evenodd" clip-rule="evenodd" d="M15.75 14H19.25C20.2169 14 21 14.7831 21 15.75V19.25C21 20.2169 20.2169 21 19.25 21H15.75C14.7831 21 14 20.2169 14 19.25V15.75C14 14.7831 14.7831 14 15.75 14Z" stroke="#0696E7" stroke-width="1.5" stroke-linecap="round" stroke-linejoin="round"/>
<path fill-rule="evenodd" clip-rule="evenodd" d="M15.75 14H19.25C20.2169 14 21 14.7831 21 15.75V19.25C21 20.2169 20.2169 21 19.25 21H15.75C14.7831 21 14 20.2169 14 19.25V15.75C14 14.7831 14.7831 14 15.75 14Z" stroke="#208EE2" stroke-width="1.5" stroke-linecap="round" stroke-linejoin="round"/>
<path fill-rule="evenodd" clip-rule="evenodd" d="M4.75 14H8.25C9.21688 14 10 14.7831 10 15.75V19.25C10 20.2169 9.21688 21 8.25 21H4.75C3.78312 21 3 20.2169 3 19.25V15.75C3 14.7831 3.78312 14 4.75 14Z" stroke="#0867D6" stroke-width="1.5" stroke-linecap="round" stroke-linejoin="round"/>
<path fill-rule="evenodd" clip-rule="evenodd" d="M4.75 14H8.25C9.21688 14 10 14.7831 10 15.75V19.25C10 20.2169 9.21688 21 8.25 21H4.75C3.78312 21 3 20.2169 3 19.25V15.75C3 14.7831 3.78312 14 4.75 14Z" stroke="#0696E7" stroke-width="1.5" stroke-linecap="round" stroke-linejoin="round"/>
<path fill-rule="evenodd" clip-rule="evenodd" d="M4.75 14H8.25C9.21688 14 10 14.7831 10 15.75V19.25C10 20.2169 9.21688 21 8.25 21H4.75C3.78312 21 3 20.2169 3 19.25V15.75C3 14.7831 3.78312 14 4.75 14Z" stroke="#208EE2" stroke-width="1.5" stroke-linecap="round" stroke-linejoin="round"/>
<path fill-rule="evenodd" clip-rule="evenodd" d="M3 8.25V4.75C3 3.78312 3.78312 3 4.75 3H8.25C9.21688 3 10 3.78312 10 4.75V8.25C10 9.21688 9.21688 10 8.25 10H4.75C3.78312 10 3 9.21688 3 8.25Z" stroke="#0867D6" stroke-width="1.5" stroke-linecap="round" stroke-linejoin="round"/>
<path fill-rule="evenodd" clip-rule="evenodd" d="M3 8.25V4.75C3 3.78312 3.78312 3 4.75 3H8.25C9.21688 3 10 3.78312 10 4.75V8.25C10 9.21688 9.21688 10 8.25 10H4.75C3.78312 10 3 9.21688 3 8.25Z" stroke="#0696E7" stroke-width="1.5" stroke-linecap="round" stroke-linejoin="round"/>
<path fill-rule="evenodd" clip-rule="evenodd" d="M3 8.25V4.75C3 3.78312 3.78312 3 4.75 3H8.25C9.21688 3 10 3.78312 10 4.75V8.25C10 9.21688 9.21688 10 8.25 10H4.75C3.78312 10 3 9.21688 3 8.25Z" stroke="#208EE2" stroke-width="1.5" stroke-linecap="round" stroke-linejoin="round"/>
</svg>
