<svg width="30" height="30" viewBox="0 0 30 30" fill="none" xmlns="http://www.w3.org/2000/svg">
<path d="M1.66699 1.66669H3.40854C3.73657 1.66669 3.90058 1.66669 4.03257 1.72701C4.14888 1.78016 4.24745 1.86565 4.31653 1.97328C4.39491 2.09541 4.4181 2.25778 4.46449 2.5825L5.09556 7.00002M5.09556 7.00002L6.49809 17.3086C6.67607 18.6167 6.76506 19.2708 7.07779 19.7631C7.35336 20.197 7.74844 20.5419 8.21547 20.7565C8.74548 21 9.40558 21 10.7258 21H22.1363C23.393 21 24.0214 21 24.5349 20.7739C24.9877 20.5745 25.3761 20.2531 25.6567 19.8457C25.9749 19.3835 26.0925 18.7662 26.3276 17.5317L28.0925 8.26627C28.1752 7.83176 28.2166 7.61451 28.1566 7.44469C28.104 7.29571 28.0002 7.17027 27.8637 7.09071C27.7081 7.00002 27.487 7.00002 27.0446 7.00002H5.09556ZM12.3337 27C12.3337 27.7364 11.7367 28.3334 11.0003 28.3334C10.2639 28.3334 9.66699 27.7364 9.66699 27C9.66699 26.2636 10.2639 25.6667 11.0003 25.6667C11.7367 25.6667 12.3337 26.2636 12.3337 27ZM23.0003 27C23.0003 27.7364 22.4034 28.3334 21.667 28.3334C20.9306 28.3334 20.3337 27.7364 20.3337 27C20.3337 26.2636 20.9306 25.6667 21.667 25.6667C22.4034 25.6667 23.0003 26.2636 23.0003 27Z" stroke="#747883" stroke-width="2" stroke-linecap="round" stroke-linejoin="round"/>
<path d="M1.66699 1.66669H3.40854C3.73657 1.66669 3.90058 1.66669 4.03257 1.72701C4.14888 1.78016 4.24745 1.86565 4.31653 1.97328C4.39491 2.09541 4.4181 2.25778 4.46449 2.5825L5.09556 7.00002M5.09556 7.00002L6.49809 17.3086C6.67607 18.6167 6.76506 19.2708 7.07779 19.7631C7.35336 20.197 7.74844 20.5419 8.21547 20.7565C8.74548 21 9.40558 21 10.7258 21H22.1363C23.393 21 24.0214 21 24.5349 20.7739C24.9877 20.5745 25.3761 20.2531 25.6567 19.8457C25.9749 19.3835 26.0925 18.7662 26.3276 17.5317L28.0925 8.26627C28.1752 7.83176 28.2166 7.61451 28.1566 7.44469C28.104 7.29571 28.0002 7.17027 27.8637 7.09071C27.7081 7.00002 27.487 7.00002 27.0446 7.00002H5.09556ZM12.3337 27C12.3337 27.7364 11.7367 28.3334 11.0003 28.3334C10.2639 28.3334 9.66699 27.7364 9.66699 27C9.66699 26.2636 10.2639 25.6667 11.0003 25.6667C11.7367 25.6667 12.3337 26.2636 12.3337 27ZM23.0003 27C23.0003 27.7364 22.4034 28.3334 21.667 28.3334C20.9306 28.3334 20.3337 27.7364 20.3337 27C20.3337 26.2636 20.9306 25.6667 21.667 25.6667C22.4034 25.6667 23.0003 26.2636 23.0003 27Z" stroke="#747883" stroke-width="2" stroke-linecap="round" stroke-linejoin="round"/>
<path d="M1.66699 1.66669H3.40854C3.73657 1.66669 3.90058 1.66669 4.03257 1.72701C4.14888 1.78016 4.24745 1.86565 4.31653 1.97328C4.39491 2.09541 4.4181 2.25778 4.46449 2.5825L5.09556 7.00002M5.09556 7.00002L6.49809 17.3086C6.67607 18.6167 6.76506 19.2708 7.07779 19.7631C7.35336 20.197 7.74844 20.5419 8.21547 20.7565C8.74548 21 9.40558 21 10.7258 21H22.1363C23.393 21 24.0214 21 24.5349 20.7739C24.9877 20.5745 25.3761 20.2531 25.6567 19.8457C25.9749 19.3835 26.0925 18.7662 26.3276 17.5317L28.0925 8.26627C28.1752 7.83176 28.2166 7.61451 28.1566 7.44469C28.104 7.29571 28.0002 7.17027 27.8637 7.09071C27.7081 7.00002 27.487 7.00002 27.0446 7.00002H5.09556ZM12.3337 27C12.3337 27.7364 11.7367 28.3334 11.0003 28.3334C10.2639 28.3334 9.66699 27.7364 9.66699 27C9.66699 26.2636 10.2639 25.6667 11.0003 25.6667C11.7367 25.6667 12.3337 26.2636 12.3337 27ZM23.0003 27C23.0003 27.7364 22.4034 28.3334 21.667 28.3334C20.9306 28.3334 20.3337 27.7364 20.3337 27C20.3337 26.2636 20.9306 25.6667 21.667 25.6667C22.4034 25.6667 23.0003 26.2636 23.0003 27Z" stroke="#747883" stroke-width="2" stroke-linecap="round" stroke-linejoin="round"/>
</svg>
